<svg xmlns="http://www.w3.org/2000/svg" xmlns:xlink="http://www.w3.org/1999/xlink" width="500" zoomAndPan="magnify" viewBox="0 0 375 37.5" height="50" preserveAspectRatio="xMidYMid meet" version="1.0"><defs><g/></defs><g fill="#40941c" fill-opacity="1"><g transform="translate(103.876014, 26.210037)"><g><path d="M 14.984375 -0.28125 C 15.015625 -0.21875 15.003906 -0.15625 14.953125 -0.09375 C 14.910156 -0.03125 14.847656 0 14.765625 0 L 11.46875 0 C 11.363281 0 11.296875 -0.046875 11.265625 -0.140625 L 7.484375 -10.78125 L 3.765625 -0.140625 C 3.753906 -0.046875 3.675781 0 3.53125 0 L 0.265625 0 C 0.148438 0 0.0703125 -0.03125 0.03125 -0.09375 C -0.0078125 -0.15625 -0.0078125 -0.21875 0.03125 -0.28125 L 7.25 -18.9375 C 7.28125 -19.039062 7.359375 -19.09375 7.484375 -19.09375 C 7.617188 -19.09375 7.703125 -19.039062 7.734375 -18.9375 Z M 14.984375 -0.28125 "/></g></g></g><g fill="#40941c" fill-opacity="1"><g transform="translate(118.981391, 34.605387)"><g><path d="M 8.75 -10.59375 C 9.757812 -10.132812 10.53125 -9.460938 11.0625 -8.578125 C 11.59375 -7.691406 11.859375 -6.6875 11.859375 -5.5625 C 11.859375 -4.363281 11.570312 -3.347656 11 -2.515625 C 10.4375 -1.691406 9.707031 -1.066406 8.8125 -0.640625 C 7.914062 -0.210938 6.957031 0 5.9375 0 C 5.9375 0 5.929688 0 5.921875 0 L 5.921875 -3.4375 C 5.929688 -3.4375 5.9375 -3.4375 5.9375 -3.4375 C 6.570312 -3.4375 7.128906 -3.628906 7.609375 -4.015625 C 8.085938 -4.410156 8.328125 -4.925781 8.328125 -5.5625 C 8.328125 -6.039062 8.203125 -6.445312 7.953125 -6.78125 C 7.710938 -7.113281 7.40625 -7.375 7.03125 -7.5625 C 6.664062 -7.75 6.300781 -7.851562 5.9375 -7.875 C 5.863281 -7.875 5.546875 -7.898438 4.984375 -7.953125 C 4.429688 -8.015625 3.804688 -8.203125 3.109375 -8.515625 C 2.117188 -8.972656 1.351562 -9.613281 0.8125 -10.4375 C 0.269531 -11.257812 0 -12.226562 0 -13.34375 C 0 -14.53125 0.28125 -15.550781 0.84375 -16.40625 C 1.40625 -17.269531 2.140625 -17.929688 3.046875 -18.390625 C 3.953125 -18.859375 4.914062 -19.09375 5.9375 -19.09375 C 7.039062 -19.09375 8.03125 -18.863281 8.90625 -18.40625 C 9.78125 -17.957031 10.472656 -17.320312 10.984375 -16.5 C 11.503906 -15.675781 11.769531 -14.722656 11.78125 -13.640625 C 11.800781 -13.609375 11.78125 -13.566406 11.71875 -13.515625 C 11.664062 -13.472656 11.601562 -13.453125 11.53125 -13.453125 L 8.546875 -13.453125 C 8.484375 -13.453125 8.421875 -13.472656 8.359375 -13.515625 C 8.304688 -13.566406 8.28125 -13.609375 8.28125 -13.640625 C 8.257812 -14.328125 8.019531 -14.832031 7.5625 -15.15625 C 7.101562 -15.488281 6.5625 -15.65625 5.9375 -15.65625 C 5.289062 -15.65625 4.734375 -15.457031 4.265625 -15.0625 C 3.796875 -14.675781 3.5625 -14.101562 3.5625 -13.34375 C 3.5625 -12.65625 3.804688 -12.128906 4.296875 -11.765625 C 4.785156 -11.410156 5.332031 -11.234375 5.9375 -11.234375 C 5.988281 -11.234375 6.148438 -11.222656 6.421875 -11.203125 C 6.691406 -11.191406 7.035156 -11.140625 7.453125 -11.046875 C 7.878906 -10.960938 8.3125 -10.8125 8.75 -10.59375 Z M 8.75 -10.59375 "/></g></g></g><g fill="#ffde59" fill-opacity="1"><g transform="translate(142.024793, 24.054276)"><g><path d="M 2.671875 0 L -0.046875 0 L 3.828125 -10.46875 L 6.515625 -10.46875 L 10.28125 0 L 7.578125 0 L 7.03125 -1.75 L 3.21875 -1.75 Z M 5.109375 -7.890625 C 5.015625 -7.578125 4.914062 -7.242188 4.8125 -6.890625 C 4.707031 -6.546875 4.53125 -5.976562 4.28125 -5.1875 L 3.859375 -3.8125 L 6.375 -3.8125 L 5.9375 -5.1875 C 5.789062 -5.613281 5.644531 -6.0625 5.5 -6.53125 C 5.363281 -7.007812 5.234375 -7.460938 5.109375 -7.890625 Z M 5.109375 -7.890625 "/></g></g></g><g fill="#ffde59" fill-opacity="1"><g transform="translate(155.501493, 24.054276)"><g><path d="M 9.828125 -10.46875 L 9.828125 0 L 7.359375 0 L 3.21875 -6.046875 L 3.21875 0 L 0.796875 0 L 0.796875 -10.46875 L 3.25 -10.46875 L 7.40625 -4.1875 L 7.40625 -10.46875 Z M 9.828125 -10.46875 "/></g></g></g><g fill="#ffde59" fill-opacity="1"><g transform="translate(169.345062, 24.054276)"><g><path d="M 8.96875 -3.078125 C 8.96875 -2.015625 8.65625 -1.234375 8.03125 -0.734375 C 7.414062 -0.242188 6.445312 0 5.125 0 L 0.796875 0 L 0.796875 -10.46875 L 5.125 -10.46875 C 6.320312 -10.46875 7.171875 -10.257812 7.671875 -9.84375 C 8.179688 -9.425781 8.4375 -8.726562 8.4375 -7.75 C 8.4375 -7.125 8.351562 -6.644531 8.1875 -6.3125 C 8.019531 -5.988281 7.6875 -5.738281 7.1875 -5.5625 C 7.789062 -5.4375 8.238281 -5.164062 8.53125 -4.75 C 8.820312 -4.34375 8.96875 -3.785156 8.96875 -3.078125 Z M 6.0625 -7.359375 C 6.0625 -7.722656 5.988281 -7.976562 5.84375 -8.125 C 5.707031 -8.269531 5.46875 -8.34375 5.125 -8.34375 L 3.390625 -8.34375 L 3.390625 -6.21875 L 5.125 -6.21875 C 5.46875 -6.21875 5.707031 -6.300781 5.84375 -6.46875 C 5.988281 -6.644531 6.0625 -6.941406 6.0625 -7.359375 Z M 6.453125 -3.234375 C 6.453125 -3.640625 6.351562 -3.921875 6.15625 -4.078125 C 5.957031 -4.242188 5.613281 -4.328125 5.125 -4.328125 L 3.390625 -4.328125 L 3.390625 -2.203125 L 5.125 -2.203125 C 5.613281 -2.203125 5.957031 -2.28125 6.15625 -2.4375 C 6.351562 -2.59375 6.453125 -2.859375 6.453125 -3.234375 Z M 6.453125 -3.234375 "/></g></g></g><g fill="#ffde59" fill-opacity="1"><g transform="translate(181.85454, 24.054276)"><g><path d="M 7.109375 -4.40625 L 7.109375 -10.46875 L 9.703125 -10.46875 L 9.703125 -4.40625 C 9.703125 -2.882812 9.328125 -1.738281 8.578125 -0.96875 C 7.828125 -0.207031 6.707031 0.171875 5.21875 0.171875 C 3.65625 0.171875 2.515625 -0.1875 1.796875 -0.90625 C 1.078125 -1.632812 0.71875 -2.800781 0.71875 -4.40625 L 0.71875 -10.46875 L 3.296875 -10.46875 L 3.296875 -4.40625 C 3.296875 -3.5625 3.425781 -2.988281 3.6875 -2.6875 C 3.957031 -2.394531 4.46875 -2.25 5.21875 -2.25 C 5.96875 -2.25 6.46875 -2.394531 6.71875 -2.6875 C 6.976562 -2.988281 7.109375 -3.5625 7.109375 -4.40625 Z M 7.109375 -4.40625 "/></g></g></g><g fill="#ffde59" fill-opacity="1"><g transform="translate(195.481318, 24.054276)"><g/></g></g><g fill="#ffde59" fill-opacity="1"><g transform="translate(201.170272, 24.054276)"><g><path d="M 4.765625 -3.90625 L 2.65625 -4.40625 C 1.8125 -4.601562 1.234375 -4.90625 0.921875 -5.3125 C 0.617188 -5.726562 0.46875 -6.320312 0.46875 -7.09375 C 0.46875 -8.300781 0.785156 -9.191406 1.421875 -9.765625 C 2.066406 -10.335938 3.0625 -10.625 4.40625 -10.625 C 4.957031 -10.625 5.453125 -10.601562 5.890625 -10.5625 C 6.328125 -10.519531 6.726562 -10.441406 7.09375 -10.328125 L 7.09375 -8.015625 C 6.25 -8.160156 5.664062 -8.242188 5.34375 -8.265625 C 5.03125 -8.285156 4.703125 -8.296875 4.359375 -8.296875 C 3.890625 -8.296875 3.546875 -8.21875 3.328125 -8.0625 C 3.117188 -7.90625 3.015625 -7.644531 3.015625 -7.28125 C 3.015625 -7.101562 3.046875 -6.960938 3.109375 -6.859375 C 3.179688 -6.765625 3.3125 -6.695312 3.5 -6.65625 L 5.5 -6.1875 C 6.082031 -6.050781 6.5 -5.921875 6.75 -5.796875 C 7.007812 -5.671875 7.21875 -5.507812 7.375 -5.3125 C 7.550781 -5.09375 7.679688 -4.816406 7.765625 -4.484375 C 7.847656 -4.148438 7.890625 -3.742188 7.890625 -3.265625 C 7.890625 -2.054688 7.566406 -1.179688 6.921875 -0.640625 C 6.273438 -0.0976562 5.273438 0.171875 3.921875 0.171875 C 3.234375 0.171875 2.578125 0.128906 1.953125 0.046875 C 1.328125 -0.0351562 0.84375 -0.140625 0.5 -0.265625 L 0.5 -2.71875 C 0.945312 -2.570312 1.472656 -2.457031 2.078125 -2.375 C 2.691406 -2.289062 3.304688 -2.25 3.921875 -2.25 C 4.410156 -2.25 4.75 -2.3125 4.9375 -2.4375 C 5.125 -2.5625 5.21875 -2.804688 5.21875 -3.171875 C 5.21875 -3.398438 5.1875 -3.566406 5.125 -3.671875 C 5.070312 -3.785156 4.953125 -3.863281 4.765625 -3.90625 Z M 4.765625 -3.90625 "/></g></g></g><g fill="#ffde59" fill-opacity="1"><g transform="translate(212.54578, 24.054276)"><g><path d="M 8.5 -10.46875 L 8.5 -8.125 L 5.640625 -8.125 L 5.640625 0 L 3.046875 0 L 3.046875 -8.125 L 0.203125 -8.125 L 0.203125 -10.46875 Z M 8.5 -10.46875 "/></g></g></g><g fill="#ffde59" fill-opacity="1"><g transform="translate(224.454917, 24.054276)"><g><path d="M 10.296875 -5.234375 C 10.296875 -3.335938 9.910156 -1.960938 9.140625 -1.109375 C 8.367188 -0.253906 7.113281 0.171875 5.375 0.171875 C 3.5625 0.171875 2.285156 -0.226562 1.546875 -1.03125 C 0.816406 -1.832031 0.453125 -3.234375 0.453125 -5.234375 C 0.453125 -7.140625 0.835938 -8.515625 1.609375 -9.359375 C 2.378906 -10.203125 3.632812 -10.625 5.375 -10.625 C 7.1875 -10.625 8.457031 -10.222656 9.1875 -9.421875 C 9.925781 -8.628906 10.296875 -7.234375 10.296875 -5.234375 Z M 3.390625 -3 C 3.535156 -2.726562 3.75 -2.535156 4.03125 -2.421875 C 4.3125 -2.304688 4.757812 -2.25 5.375 -2.25 C 5.988281 -2.25 6.4375 -2.304688 6.71875 -2.421875 C 7 -2.535156 7.210938 -2.726562 7.359375 -3 C 7.472656 -3.226562 7.550781 -3.519531 7.59375 -3.875 C 7.644531 -4.226562 7.671875 -4.679688 7.671875 -5.234375 C 7.671875 -5.804688 7.644531 -6.269531 7.59375 -6.625 C 7.550781 -6.988281 7.472656 -7.285156 7.359375 -7.515625 C 7.222656 -7.796875 7.015625 -7.992188 6.734375 -8.109375 C 6.453125 -8.234375 6 -8.296875 5.375 -8.296875 C 4.75 -8.296875 4.296875 -8.234375 4.015625 -8.109375 C 3.734375 -7.992188 3.523438 -7.796875 3.390625 -7.515625 C 3.273438 -7.285156 3.191406 -6.988281 3.140625 -6.625 C 3.097656 -6.269531 3.078125 -5.804688 3.078125 -5.234375 C 3.078125 -4.679688 3.097656 -4.226562 3.140625 -3.875 C 3.191406 -3.519531 3.273438 -3.226562 3.390625 -3 Z M 3.390625 -3 "/></g></g></g><g fill="#ffde59" fill-opacity="1"><g transform="translate(238.415216, 24.054276)"><g><path d="M 3.390625 -3.375 L 3.390625 0 L 0.796875 0 L 0.796875 -10.46875 L 4.625 -10.46875 C 6.238281 -10.46875 7.382812 -10.191406 8.0625 -9.640625 C 8.738281 -9.097656 9.078125 -8.191406 9.078125 -6.921875 C 9.078125 -6.066406 8.894531 -5.367188 8.53125 -4.828125 C 8.175781 -4.285156 7.628906 -3.894531 6.890625 -3.65625 L 9.4375 0 L 6.34375 0 L 4.171875 -3.375 Z M 6.453125 -6.921875 C 6.453125 -7.367188 6.316406 -7.679688 6.046875 -7.859375 C 5.785156 -8.035156 5.3125 -8.125 4.625 -8.125 L 3.390625 -8.125 L 3.390625 -5.453125 L 4.625 -5.453125 C 5.3125 -5.453125 5.785156 -5.5625 6.046875 -5.78125 C 6.316406 -6 6.453125 -6.378906 6.453125 -6.921875 Z M 6.453125 -6.921875 "/></g></g></g><g fill="#ffde59" fill-opacity="1"><g transform="translate(251.258231, 24.054276)"><g><path d="M 8.015625 -2.421875 L 8.015625 0 L 0.796875 0 L 0.796875 -10.46875 L 7.859375 -10.46875 L 7.859375 -8.125 L 3.390625 -8.125 L 3.390625 -6.390625 L 7.25 -6.390625 L 7.25 -4.21875 L 3.390625 -4.21875 L 3.390625 -2.421875 Z M 8.015625 -2.421875 "/></g></g></g><g fill="#ffde59" fill-opacity="1"><g transform="translate(262.900554, 24.054276)"><g><path d="M 4.765625 -3.90625 L 2.65625 -4.40625 C 1.8125 -4.601562 1.234375 -4.90625 0.921875 -5.3125 C 0.617188 -5.726562 0.46875 -6.320312 0.46875 -7.09375 C 0.46875 -8.300781 0.785156 -9.191406 1.421875 -9.765625 C 2.066406 -10.335938 3.0625 -10.625 4.40625 -10.625 C 4.957031 -10.625 5.453125 -10.601562 5.890625 -10.5625 C 6.328125 -10.519531 6.726562 -10.441406 7.09375 -10.328125 L 7.09375 -8.015625 C 6.25 -8.160156 5.664062 -8.242188 5.34375 -8.265625 C 5.03125 -8.285156 4.703125 -8.296875 4.359375 -8.296875 C 3.890625 -8.296875 3.546875 -8.21875 3.328125 -8.0625 C 3.117188 -7.90625 3.015625 -7.644531 3.015625 -7.28125 C 3.015625 -7.101562 3.046875 -6.960938 3.109375 -6.859375 C 3.179688 -6.765625 3.3125 -6.695312 3.5 -6.65625 L 5.5 -6.1875 C 6.082031 -6.050781 6.5 -5.921875 6.75 -5.796875 C 7.007812 -5.671875 7.21875 -5.507812 7.375 -5.3125 C 7.550781 -5.09375 7.679688 -4.816406 7.765625 -4.484375 C 7.847656 -4.148438 7.890625 -3.742188 7.890625 -3.265625 C 7.890625 -2.054688 7.566406 -1.179688 6.921875 -0.640625 C 6.273438 -0.0976562 5.273438 0.171875 3.921875 0.171875 C 3.234375 0.171875 2.578125 0.128906 1.953125 0.046875 C 1.328125 -0.0351562 0.84375 -0.140625 0.5 -0.265625 L 0.5 -2.71875 C 0.945312 -2.570312 1.472656 -2.457031 2.078125 -2.375 C 2.691406 -2.289062 3.304688 -2.25 3.921875 -2.25 C 4.410156 -2.25 4.75 -2.3125 4.9375 -2.4375 C 5.125 -2.5625 5.21875 -2.804688 5.21875 -3.171875 C 5.21875 -3.398438 5.1875 -3.566406 5.125 -3.671875 C 5.070312 -3.785156 4.953125 -3.863281 4.765625 -3.90625 Z M 4.765625 -3.90625 "/></g></g></g></svg>