<svg xmlns="http://www.w3.org/2000/svg" xmlns:xlink="http://www.w3.org/1999/xlink" width="500" zoomAndPan="magnify" viewBox="0 0 375 374.999991" height="500" preserveAspectRatio="xMidYMid meet" version="1.0"><defs><g/></defs><g fill="#40941c" fill-opacity="1"><g transform="translate(103.867389, 223.299485)"><g><path d="M 89.203125 -1.703125 C 89.390625 -1.328125 89.335938 -0.945312 89.046875 -0.5625 C 88.765625 -0.1875 88.390625 0 87.921875 0 L 68.3125 0 C 67.65625 0 67.226562 -0.285156 67.03125 -0.859375 L 44.59375 -64.203125 L 22.4375 -0.859375 C 22.34375 -0.285156 21.867188 0 21.015625 0 L 1.5625 0 C 0.894531 0 0.441406 -0.1875 0.203125 -0.5625 C -0.0234375 -0.945312 -0.046875 -1.328125 0.140625 -1.703125 L 43.171875 -112.765625 C 43.367188 -113.335938 43.84375 -113.625 44.59375 -113.625 C 45.351562 -113.625 45.828125 -113.335938 46.015625 -112.765625 Z M 89.203125 -1.703125 "/></g></g></g><g fill="#40941c" fill-opacity="1"><g transform="translate(193.799758, 273.282616)"><g><path d="M 52.125 -63.0625 C 58.09375 -60.3125 62.660156 -56.304688 65.828125 -51.046875 C 69.003906 -45.796875 70.59375 -39.8125 70.59375 -33.09375 C 70.59375 -25.988281 68.910156 -19.972656 65.546875 -15.046875 C 62.179688 -10.128906 57.820312 -6.390625 52.46875 -3.828125 C 47.125 -1.273438 41.421875 0 35.359375 0 C 35.359375 0 35.3125 0 35.21875 0 L 35.21875 -20.453125 C 35.3125 -20.453125 35.359375 -20.453125 35.359375 -20.453125 C 39.148438 -20.453125 42.460938 -21.609375 45.296875 -23.921875 C 48.140625 -26.242188 49.5625 -29.300781 49.5625 -33.09375 C 49.5625 -35.9375 48.828125 -38.347656 47.359375 -40.328125 C 45.898438 -42.316406 44.078125 -43.878906 41.890625 -45.015625 C 39.710938 -46.160156 37.535156 -46.78125 35.359375 -46.875 C 34.890625 -46.875 33 -47.035156 29.6875 -47.359375 C 26.375 -47.691406 22.632812 -48.804688 18.46875 -50.703125 C 12.59375 -53.453125 8.046875 -57.265625 4.828125 -62.140625 C 1.609375 -67.015625 0 -72.765625 0 -79.390625 C 0 -86.492188 1.675781 -92.601562 5.03125 -97.71875 C 8.394531 -102.832031 12.773438 -106.757812 18.171875 -109.5 C 23.578125 -112.25 29.304688 -113.625 35.359375 -113.625 C 41.898438 -113.625 47.773438 -112.273438 52.984375 -109.578125 C 58.191406 -106.878906 62.332031 -103.09375 65.40625 -98.21875 C 68.476562 -93.34375 70.0625 -87.679688 70.15625 -81.234375 C 70.257812 -81.046875 70.144531 -80.8125 69.8125 -80.53125 C 69.476562 -80.25 69.070312 -80.109375 68.59375 -80.109375 L 50.84375 -80.109375 C 50.46875 -80.109375 50.113281 -80.25 49.78125 -80.53125 C 49.445312 -80.8125 49.28125 -81.046875 49.28125 -81.234375 C 49.1875 -85.304688 47.765625 -88.3125 45.015625 -90.25 C 42.273438 -92.195312 39.054688 -93.171875 35.359375 -93.171875 C 31.484375 -93.171875 28.144531 -92.007812 25.34375 -89.6875 C 22.550781 -87.375 21.15625 -83.941406 21.15625 -79.390625 C 21.15625 -75.316406 22.625 -72.210938 25.5625 -70.078125 C 28.5 -67.953125 31.765625 -66.890625 35.359375 -66.890625 C 35.648438 -66.890625 36.597656 -66.84375 38.203125 -66.75 C 39.816406 -66.65625 41.878906 -66.347656 44.390625 -65.828125 C 46.898438 -65.304688 49.476562 -64.382812 52.125 -63.0625 Z M 52.125 -63.0625 "/></g></g></g><g fill="#ffde59" fill-opacity="1"><g transform="translate(114.59019, 253.911444)"><g><path d="M 2.5625 0 L -0.046875 0 L 3.65625 -10.03125 L 6.234375 -10.03125 L 9.859375 0 L 7.265625 0 L 6.734375 -1.6875 L 3.09375 -1.6875 Z M 4.890625 -7.5625 C 4.804688 -7.269531 4.710938 -6.953125 4.609375 -6.609375 C 4.515625 -6.273438 4.347656 -5.726562 4.109375 -4.96875 L 3.703125 -3.640625 L 6.109375 -3.640625 L 5.703125 -4.96875 C 5.554688 -5.375 5.414062 -5.800781 5.28125 -6.25 C 5.144531 -6.707031 5.015625 -7.144531 4.890625 -7.5625 Z M 4.890625 -7.5625 "/></g></g></g><g fill="#ffde59" fill-opacity="1"><g transform="translate(133.147813, 253.911444)"><g><path d="M 9.421875 -10.03125 L 9.421875 0 L 7.0625 0 L 3.09375 -5.796875 L 3.09375 0 L 0.765625 0 L 0.765625 -10.03125 L 3.125 -10.03125 L 7.109375 -4.015625 L 7.109375 -10.03125 Z M 9.421875 -10.03125 "/></g></g></g><g fill="#ffde59" fill-opacity="1"><g transform="translate(152.057354, 253.911444)"><g><path d="M 8.59375 -2.9375 C 8.59375 -1.925781 8.296875 -1.179688 7.703125 -0.703125 C 7.109375 -0.234375 6.175781 0 4.90625 0 L 0.765625 0 L 0.765625 -10.03125 L 4.90625 -10.03125 C 6.0625 -10.03125 6.878906 -9.828125 7.359375 -9.421875 C 7.847656 -9.023438 8.09375 -8.359375 8.09375 -7.421875 C 8.09375 -6.828125 8.007812 -6.367188 7.84375 -6.046875 C 7.6875 -5.734375 7.367188 -5.492188 6.890625 -5.328125 C 7.472656 -5.210938 7.898438 -4.957031 8.171875 -4.5625 C 8.453125 -4.164062 8.59375 -3.625 8.59375 -2.9375 Z M 5.8125 -7.0625 C 5.8125 -7.40625 5.742188 -7.644531 5.609375 -7.78125 C 5.472656 -7.925781 5.238281 -8 4.90625 -8 L 3.25 -8 L 3.25 -5.96875 L 4.90625 -5.96875 C 5.238281 -5.96875 5.472656 -6.050781 5.609375 -6.21875 C 5.742188 -6.382812 5.8125 -6.664062 5.8125 -7.0625 Z M 6.1875 -3.109375 C 6.1875 -3.492188 6.085938 -3.757812 5.890625 -3.90625 C 5.703125 -4.0625 5.375 -4.140625 4.90625 -4.140625 L 3.25 -4.140625 L 3.25 -2.109375 L 4.90625 -2.109375 C 5.375 -2.109375 5.703125 -2.179688 5.890625 -2.328125 C 6.085938 -2.484375 6.1875 -2.742188 6.1875 -3.109375 Z M 6.1875 -3.109375 "/></g></g></g><g fill="#ffde59" fill-opacity="1"><g transform="translate(169.687194, 253.911444)"><g><path d="M 6.8125 -4.21875 L 6.8125 -10.03125 L 9.296875 -10.03125 L 9.296875 -4.21875 C 9.296875 -2.757812 8.9375 -1.664062 8.21875 -0.9375 C 7.507812 -0.207031 6.441406 0.15625 5.015625 0.15625 C 3.503906 0.15625 2.40625 -0.1875 1.71875 -0.875 C 1.03125 -1.570312 0.6875 -2.6875 0.6875 -4.21875 L 0.6875 -10.03125 L 3.171875 -10.03125 L 3.171875 -4.21875 C 3.171875 -3.414062 3.296875 -2.867188 3.546875 -2.578125 C 3.796875 -2.296875 4.285156 -2.15625 5.015625 -2.15625 C 5.722656 -2.15625 6.195312 -2.296875 6.4375 -2.578125 C 6.6875 -2.867188 6.8125 -3.414062 6.8125 -4.21875 Z M 6.8125 -4.21875 "/></g></g></g><g fill="#ffde59" fill-opacity="1"><g transform="translate(200.600118, 139.763736)"><g><path d="M 4.578125 -3.75 L 2.546875 -4.21875 C 1.734375 -4.414062 1.179688 -4.710938 0.890625 -5.109375 C 0.597656 -5.503906 0.453125 -6.066406 0.453125 -6.796875 C 0.453125 -7.960938 0.753906 -8.816406 1.359375 -9.359375 C 1.972656 -9.910156 2.925781 -10.1875 4.21875 -10.1875 C 4.757812 -10.1875 5.234375 -10.164062 5.640625 -10.125 C 6.054688 -10.082031 6.441406 -10.007812 6.796875 -9.90625 L 6.796875 -7.6875 C 5.984375 -7.820312 5.425781 -7.898438 5.125 -7.921875 C 4.820312 -7.941406 4.503906 -7.953125 4.171875 -7.953125 C 3.722656 -7.953125 3.394531 -7.875 3.1875 -7.71875 C 2.988281 -7.570312 2.890625 -7.320312 2.890625 -6.96875 C 2.890625 -6.800781 2.921875 -6.671875 2.984375 -6.578125 C 3.054688 -6.492188 3.179688 -6.429688 3.359375 -6.390625 L 5.28125 -5.9375 C 5.832031 -5.8125 6.226562 -5.6875 6.46875 -5.5625 C 6.71875 -5.4375 6.921875 -5.28125 7.078125 -5.09375 C 7.242188 -4.882812 7.363281 -4.617188 7.4375 -4.296875 C 7.519531 -3.984375 7.5625 -3.597656 7.5625 -3.140625 C 7.5625 -1.972656 7.253906 -1.128906 6.640625 -0.609375 C 6.023438 -0.0976562 5.066406 0.15625 3.765625 0.15625 C 3.097656 0.15625 2.460938 0.113281 1.859375 0.03125 C 1.265625 -0.0390625 0.804688 -0.132812 0.484375 -0.25 L 0.484375 -2.609375 C 0.910156 -2.472656 1.414062 -2.363281 2 -2.28125 C 2.582031 -2.195312 3.171875 -2.15625 3.765625 -2.15625 C 4.234375 -2.15625 4.554688 -2.210938 4.734375 -2.328125 C 4.921875 -2.453125 5.015625 -2.691406 5.015625 -3.046875 C 5.015625 -3.265625 4.984375 -3.425781 4.921875 -3.53125 C 4.859375 -3.632812 4.742188 -3.707031 4.578125 -3.75 Z M 4.578125 -3.75 "/></g></g></g><g fill="#ffde59" fill-opacity="1"><g transform="translate(209.238233, 139.763736)"><g><path d="M 8.140625 -10.03125 L 8.140625 -7.796875 L 5.40625 -7.796875 L 5.40625 0 L 2.921875 0 L 2.921875 -7.796875 L 0.1875 -7.796875 L 0.1875 -10.03125 Z M 8.140625 -10.03125 "/></g></g></g><g fill="#ffde59" fill-opacity="1"><g transform="translate(218.388231, 139.763736)"><g><path d="M 9.875 -5.03125 C 9.875 -3.195312 9.5 -1.875 8.75 -1.0625 C 8.007812 -0.25 6.8125 0.15625 5.15625 0.15625 C 3.414062 0.15625 2.191406 -0.222656 1.484375 -0.984375 C 0.785156 -1.753906 0.4375 -3.101562 0.4375 -5.03125 C 0.4375 -6.851562 0.804688 -8.164062 1.546875 -8.96875 C 2.285156 -9.78125 3.488281 -10.1875 5.15625 -10.1875 C 6.894531 -10.1875 8.113281 -9.800781 8.8125 -9.03125 C 9.519531 -8.269531 9.875 -6.9375 9.875 -5.03125 Z M 3.25 -2.875 C 3.382812 -2.613281 3.585938 -2.425781 3.859375 -2.3125 C 4.128906 -2.207031 4.5625 -2.15625 5.15625 -2.15625 C 5.738281 -2.15625 6.164062 -2.207031 6.4375 -2.3125 C 6.707031 -2.425781 6.914062 -2.613281 7.0625 -2.875 C 7.164062 -3.09375 7.238281 -3.367188 7.28125 -3.703125 C 7.332031 -4.046875 7.359375 -4.488281 7.359375 -5.03125 C 7.359375 -5.570312 7.332031 -6.015625 7.28125 -6.359375 C 7.238281 -6.703125 7.164062 -6.984375 7.0625 -7.203125 C 6.925781 -7.472656 6.722656 -7.664062 6.453125 -7.78125 C 6.179688 -7.894531 5.75 -7.953125 5.15625 -7.953125 C 4.550781 -7.953125 4.113281 -7.894531 3.84375 -7.78125 C 3.570312 -7.664062 3.375 -7.472656 3.25 -7.203125 C 3.144531 -6.984375 3.066406 -6.703125 3.015625 -6.359375 C 2.960938 -6.015625 2.9375 -5.570312 2.9375 -5.03125 C 2.9375 -4.488281 2.960938 -4.046875 3.015625 -3.703125 C 3.066406 -3.367188 3.144531 -3.09375 3.25 -2.875 Z M 3.25 -2.875 "/></g></g></g><g fill="#ffde59" fill-opacity="1"><g transform="translate(229.505755, 139.763736)"><g><path d="M 3.25 -3.234375 L 3.25 0 L 0.765625 0 L 0.765625 -10.03125 L 4.4375 -10.03125 C 5.976562 -10.03125 7.070312 -9.769531 7.71875 -9.25 C 8.375 -8.726562 8.703125 -7.859375 8.703125 -6.640625 C 8.703125 -5.816406 8.523438 -5.144531 8.171875 -4.625 C 7.828125 -4.113281 7.304688 -3.738281 6.609375 -3.5 L 9.0625 0 L 6.078125 0 L 4 -3.234375 Z M 6.1875 -6.640625 C 6.1875 -7.066406 6.054688 -7.363281 5.796875 -7.53125 C 5.546875 -7.707031 5.09375 -7.796875 4.4375 -7.796875 L 3.25 -7.796875 L 3.25 -5.234375 L 4.4375 -5.234375 C 5.09375 -5.234375 5.546875 -5.335938 5.796875 -5.546875 C 6.054688 -5.753906 6.1875 -6.117188 6.1875 -6.640625 Z M 6.1875 -6.640625 "/></g></g></g><g fill="#ffde59" fill-opacity="1"><g transform="translate(239.551538, 139.763736)"><g><path d="M 7.6875 -2.3125 L 7.6875 0 L 0.765625 0 L 0.765625 -10.03125 L 7.53125 -10.03125 L 7.53125 -7.796875 L 3.25 -7.796875 L 3.25 -6.125 L 6.9375 -6.125 L 6.9375 -4.046875 L 3.25 -4.046875 L 3.25 -2.3125 Z M 7.6875 -2.3125 "/></g></g></g><g fill="#ffde59" fill-opacity="1"><g transform="translate(248.445599, 139.763736)"><g><path d="M 4.578125 -3.75 L 2.546875 -4.21875 C 1.734375 -4.414062 1.179688 -4.710938 0.890625 -5.109375 C 0.597656 -5.503906 0.453125 -6.066406 0.453125 -6.796875 C 0.453125 -7.960938 0.753906 -8.816406 1.359375 -9.359375 C 1.972656 -9.910156 2.925781 -10.1875 4.21875 -10.1875 C 4.757812 -10.1875 5.234375 -10.164062 5.640625 -10.125 C 6.054688 -10.082031 6.441406 -10.007812 6.796875 -9.90625 L 6.796875 -7.6875 C 5.984375 -7.820312 5.425781 -7.898438 5.125 -7.921875 C 4.820312 -7.941406 4.503906 -7.953125 4.171875 -7.953125 C 3.722656 -7.953125 3.394531 -7.875 3.1875 -7.71875 C 2.988281 -7.570312 2.890625 -7.320312 2.890625 -6.96875 C 2.890625 -6.800781 2.921875 -6.671875 2.984375 -6.578125 C 3.054688 -6.492188 3.179688 -6.429688 3.359375 -6.390625 L 5.28125 -5.9375 C 5.832031 -5.8125 6.226562 -5.6875 6.46875 -5.5625 C 6.71875 -5.4375 6.921875 -5.28125 7.078125 -5.09375 C 7.242188 -4.882812 7.363281 -4.617188 7.4375 -4.296875 C 7.519531 -3.984375 7.5625 -3.597656 7.5625 -3.140625 C 7.5625 -1.972656 7.253906 -1.128906 6.640625 -0.609375 C 6.023438 -0.0976562 5.066406 0.15625 3.765625 0.15625 C 3.097656 0.15625 2.460938 0.113281 1.859375 0.03125 C 1.265625 -0.0390625 0.804688 -0.132812 0.484375 -0.25 L 0.484375 -2.609375 C 0.910156 -2.472656 1.414062 -2.363281 2 -2.28125 C 2.582031 -2.195312 3.171875 -2.15625 3.765625 -2.15625 C 4.234375 -2.15625 4.554688 -2.210938 4.734375 -2.328125 C 4.921875 -2.453125 5.015625 -2.691406 5.015625 -3.046875 C 5.015625 -3.265625 4.984375 -3.425781 4.921875 -3.53125 C 4.859375 -3.632812 4.742188 -3.707031 4.578125 -3.75 Z M 4.578125 -3.75 "/></g></g></g></svg>